<svg width="17" height="20" viewBox="0 0 17 20" fill="none" xmlns="http://www.w3.org/2000/svg">
<g id="Paper Upload">
<path id="Paper Upload_2" fill-rule="evenodd" clip-rule="evenodd" d="M10.4455 10.89C10.7327 11.18 11.198 11.18 11.4851 10.89C11.7822 10.6 11.7822 10.13 11.495 9.84L8.65347 6.96C8.58416 6.89 8.50495 6.84 8.41584 6.8C8.32673 6.76 8.23762 6.74 8.13861 6.74C8.0396 6.74 7.94059 6.76 7.85148 6.8C7.76238 6.84 7.68317 6.89 7.61386 6.96L4.78218 9.84C4.49505 10.13 4.49505 10.6 4.78218 10.89C5.06931 11.18 5.53465 11.18 5.82178 10.89L7.39604 9.29V14.12C7.39604 14.53 7.72277 14.86 8.13861 14.86C8.54455 14.86 8.87129 14.53 8.87129 14.12V9.29L10.4455 10.89ZM15.8282 7.02561C16.0609 7.02292 16.3143 7.02 16.5446 7.02C16.7921 7.02 17 7.22 17 7.47V15.51C17 17.99 15 20 12.5446 20H4.67327C2.08911 20 0 17.89 0 15.29V4.51C0 2.03 1.9901 0 4.46535 0H9.75247C10 0 10.2079 0.21 10.2079 0.46V3.68C10.2079 5.51 11.6931 7.01 13.5149 7.02C13.9313 7.02 14.301 7.02315 14.6258 7.02591C14.8801 7.02807 15.1069 7.03 15.3069 7.03C15.4479 7.03 15.6306 7.02789 15.8282 7.02561ZM16.1047 5.566C15.2908 5.569 14.3324 5.566 13.6423 5.559C12.5472 5.559 11.6452 4.648 11.6452 3.542V0.906C11.6452 0.475 12.1621 0.261 12.4581 0.572C13.2204 1.37179 14.3872 2.59739 15.3736 3.63346C15.7735 4.05345 16.1437 4.44229 16.4452 4.759C16.7334 5.062 16.5215 5.565 16.1047 5.566Z" fill="#939393"/>
</g>
</svg>
